<?xml version="1.0" encoding="utf-8"?>
<!-- Generator: Adobe Illustrator 16.0.0, SVG Export Plug-In . SVG Version: 6.00 Build 0)  -->
<!DOCTYPE svg PUBLIC "-//W3C//DTD SVG 1.1//EN" "http://www.w3.org/Graphics/SVG/1.1/DTD/svg11.dtd">
<svg version="1.1" id="Layer_1" xmlns="http://www.w3.org/2000/svg" xmlns:xlink="http://www.w3.org/1999/xlink" x="0px" y="0px"
	 width="432px" height="144px" viewBox="0 0 432 144" enable-background="new 0 0 432 144" xml:space="preserve">
<polyline fill="none" stroke="#000000" stroke-width="0.75" stroke-linecap="round" stroke-linejoin="round" stroke-miterlimit="10" points="
	137.52,60 208.08,60 208.05,60 208.17,59.99 208.28,59.97 208.39,59.93 208.49,59.87 208.58,59.8 208.66,59.71 208.72,59.61 
	208.76,59.51 208.79,59.4 208.8,59.28 208.8,36.72 208.79,36.6 208.76,36.49 208.72,36.39 208.66,36.29 208.58,36.2 208.49,36.13 
	208.39,36.07 208.28,36.03 208.17,36.01 208.08,36 137.52,36 137.61,36.01 137.49,36 137.38,36.01 137.26,36.05 137.16,36.1 
	137.06,36.16 136.98,36.24 136.91,36.34 136.86,36.44 136.82,36.55 136.8,36.66 136.8,36.72 136.8,59.28 136.8,59.22 136.8,59.34 
	136.82,59.45 136.86,59.56 136.91,59.66 136.98,59.76 137.06,59.84 137.16,59.9 137.26,59.95 137.38,59.99 137.49,60 137.52,60 "/>
<text transform="matrix(1 0 0 1 152.5298 51.3101)" font-family="'TimesNewRomanPSMT'" font-size="10">Properties</text>
<polyline fill="none" stroke="#000000" stroke-width="0.75" stroke-linecap="round" stroke-linejoin="round" stroke-miterlimit="10" points="
	137.52,108 208.08,108 208.05,108 208.17,107.99 208.28,107.97 208.39,107.93 208.49,107.87 208.58,107.8 208.66,107.71 
	208.72,107.61 208.76,107.51 208.79,107.4 208.8,107.28 208.8,36.72 208.79,36.6 208.76,36.49 208.72,36.39 208.66,36.29 
	208.58,36.2 208.49,36.13 208.39,36.07 208.28,36.03 208.17,36.01 208.08,36 137.52,36 137.61,36.01 137.49,36 137.38,36.01 
	137.26,36.05 137.16,36.1 137.06,36.16 136.98,36.24 136.91,36.34 136.86,36.44 136.82,36.55 136.8,36.66 136.8,36.72 136.8,107.28 
	136.8,107.22 136.8,107.34 136.82,107.45 136.86,107.56 136.91,107.66 136.98,107.76 137.06,107.84 137.16,107.9 137.26,107.95 
	137.38,107.99 137.49,108 137.52,108 "/>
<text transform="matrix(1 0 0 1 162.52 71.2002)" font-family="'TimesNewRomanPSMT'" font-size="10">input</text>
<text transform="matrix(1 0 0 1 163.0801 85.5996)" font-family="'TimesNewRomanPSMT'" font-size="10">from</text>
<text transform="matrix(1 0 0 1 168.9102 100)" font-family="'TimesNewRomanPSMT'" font-size="10">to</text>
<polyline fill="none" stroke="#000000" stroke-width="0.75" stroke-linecap="round" stroke-linejoin="round" stroke-miterlimit="10" points="
	223.92,60 294.48,60 294.45,60 294.57,59.99 294.68,59.97 294.79,59.93 294.89,59.87 294.98,59.8 295.06,59.71 295.12,59.61 
	295.16,59.51 295.19,59.4 295.2,59.28 295.2,36.72 295.19,36.6 295.16,36.49 295.12,36.39 295.06,36.29 294.98,36.2 294.89,36.13 
	294.79,36.07 294.68,36.03 294.57,36.01 294.48,36 223.92,36 224.01,36.01 223.89,36 223.78,36.01 223.66,36.05 223.56,36.1 
	223.46,36.16 223.38,36.24 223.31,36.34 223.26,36.44 223.22,36.55 223.2,36.66 223.2,36.72 223.2,59.28 223.2,59.22 223.2,59.34 
	223.22,59.45 223.26,59.56 223.31,59.66 223.38,59.76 223.46,59.84 223.56,59.9 223.66,59.95 223.78,59.99 223.89,60 223.92,60 "/>
<text transform="matrix(1 0 0 1 241.7002 51.3101)" font-family="'TimesNewRomanPSMT'" font-size="10">Methods</text>
<polyline fill="none" stroke="#000000" stroke-width="0.75" stroke-linecap="round" stroke-linejoin="round" stroke-miterlimit="10" points="
	223.92,108 294.48,108 294.45,108 294.57,107.99 294.68,107.97 294.79,107.93 294.89,107.87 294.98,107.8 295.06,107.71 
	295.12,107.61 295.16,107.51 295.19,107.4 295.2,107.28 295.2,36.72 295.19,36.6 295.16,36.49 295.12,36.39 295.06,36.29 
	294.98,36.2 294.89,36.13 294.79,36.07 294.68,36.03 294.57,36.01 294.48,36 223.92,36 224.01,36.01 223.89,36 223.78,36.01 
	223.66,36.05 223.56,36.1 223.46,36.16 223.38,36.24 223.31,36.34 223.26,36.44 223.22,36.55 223.2,36.66 223.2,36.72 223.2,107.28 
	223.2,107.22 223.2,107.34 223.22,107.45 223.26,107.56 223.31,107.66 223.38,107.76 223.46,107.84 223.56,107.9 223.66,107.95 
	223.78,107.99 223.89,108 223.92,108 "/>
<text transform="matrix(1 0 0 1 252.2598 71.2002)" font-family="'TimesNewRomanPSMT'" font-size="10">test</text>
<text transform="matrix(1 0 0 1 252.54 85.5996)" font-family="'TimesNewRomanPSMT'" font-size="10">run</text>
<text transform="matrix(1 0 0 1 255.3096 100)" font-family="'TimesNewRomanPSMT'" font-size="10">to</text>
<polyline fill="none" stroke="#000000" stroke-width="0.75" stroke-linecap="round" stroke-linejoin="round" stroke-miterlimit="10" points="
	126.72,117 305.28,117 305.25,117 305.37,116.99 305.48,116.97 305.59,116.93 305.69,116.87 305.78,116.8 305.86,116.71 
	305.92,116.61 305.96,116.51 305.99,116.4 306,116.28 306,27.72 305.99,27.6 305.96,27.49 305.92,27.39 305.86,27.29 305.78,27.2 
	305.69,27.13 305.59,27.07 305.48,27.03 305.37,27.01 305.28,27 126.72,27 126.81,27.01 126.69,27 126.58,27.01 126.46,27.05 
	126.36,27.1 126.26,27.16 126.18,27.24 126.11,27.34 126.06,27.44 126.02,27.55 126,27.66 126,27.72 126,116.28 126,116.22 
	126,116.34 126.02,116.45 126.06,116.56 126.11,116.66 126.18,116.76 126.26,116.84 126.36,116.9 126.46,116.95 126.58,116.99 
	126.69,117 126.72,117 "/>
<text transform="matrix(1 0 0 1 181.6899 21.3101)" font-family="'TimesNewRomanPSMT'" font-size="10">Base Component</text>
<line fill="none" stroke="#000000" stroke-width="0.75" stroke-linecap="round" stroke-linejoin="round" stroke-miterlimit="10" x1="90" y1="72" x2="126" y2="72"/>
<polyline fill="none" stroke="#000000" stroke-width="0.75" stroke-linecap="round" stroke-linejoin="round" stroke-miterlimit="10" points="
	122.26,74.16 126,72 122.26,69.84 "/>
<text transform="matrix(1 0 0 1 65.8799 75.3096)" font-family="'TimesNewRomanPSMT'" font-size="10">from</text>
<line fill="none" stroke="#000000" stroke-width="0.75" stroke-linecap="round" stroke-linejoin="round" stroke-miterlimit="10" x1="306" y1="72" x2="342" y2="72"/>
<polyline fill="none" stroke="#000000" stroke-width="0.75" stroke-linecap="round" stroke-linejoin="round" stroke-miterlimit="10" points="
	338.26,74.16 342,72 338.26,69.84 "/>
<text transform="matrix(1 0 0 1 347.4697 75.3096)" font-family="'TimesNewRomanPSMT'" font-size="10">to</text>
</svg>
