<?xml version="1.0" encoding="utf-8"?>
<!-- Generator: Adobe Illustrator 16.0.0, SVG Export Plug-In . SVG Version: 6.00 Build 0)  -->
<!DOCTYPE svg PUBLIC "-//W3C//DTD SVG 1.1//EN" "http://www.w3.org/Graphics/SVG/1.1/DTD/svg11.dtd">
<svg version="1.1" id="Layer_1" xmlns="http://www.w3.org/2000/svg" xmlns:xlink="http://www.w3.org/1999/xlink" x="0px" y="0px"
	 width="432px" height="252px" viewBox="0 0 432 252" enable-background="new 0 0 432 252" xml:space="preserve">
<polyline fill="none" stroke="#000000" stroke-width="0.75" stroke-linecap="round" stroke-linejoin="round" stroke-miterlimit="10" points="
	35.28,95.4 98.64,95.4 98.61,95.4 98.73,95.39 98.84,95.37 98.95,95.33 99.05,95.27 99.14,95.2 99.22,95.11 99.28,95.01 
	99.32,94.91 99.35,94.8 99.36,94.68 99.36,31.32 99.35,31.2 99.32,31.09 99.28,30.99 99.22,30.89 99.14,30.8 99.05,30.73 
	98.95,30.67 98.84,30.63 98.73,30.61 98.64,30.6 35.28,30.6 35.37,30.61 35.25,30.6 35.14,30.61 35.02,30.65 34.92,30.7 
	34.82,30.76 34.74,30.84 34.67,30.94 34.62,31.04 34.58,31.15 34.56,31.26 34.56,31.32 34.56,94.68 34.56,94.62 34.56,94.74 
	34.58,94.85 34.62,94.96 34.67,95.06 34.74,95.16 34.82,95.24 34.92,95.3 35.02,95.35 35.14,95.39 35.25,95.4 35.28,95.4 "/>
<text transform="matrix(1 0 0 1 57.52 66.3101)" font-family="'TimesNewRomanPSMT'" font-size="10">Data</text>
<polyline fill="none" stroke="#000000" stroke-width="0.75" stroke-linecap="round" stroke-linejoin="round" stroke-miterlimit="10" points="
	134.64,95.4 198,95.4 197.97,95.4 198.09,95.39 198.2,95.37 198.31,95.33 198.41,95.27 198.5,95.2 198.58,95.11 198.64,95.01 
	198.68,94.91 198.71,94.8 198.72,94.68 198.72,31.32 198.71,31.2 198.68,31.09 198.64,30.99 198.58,30.89 198.5,30.8 198.41,30.73 
	198.31,30.67 198.2,30.63 198.09,30.61 198,30.6 134.64,30.6 134.73,30.61 134.61,30.6 134.5,30.61 134.38,30.65 134.28,30.7 
	134.18,30.76 134.1,30.84 134.03,30.94 133.98,31.04 133.94,31.15 133.92,31.26 133.92,31.32 133.92,94.68 133.92,94.62 
	133.92,94.74 133.94,94.85 133.98,94.96 134.03,95.06 134.1,95.16 134.18,95.24 134.28,95.3 134.38,95.35 134.5,95.39 134.61,95.4 
	134.64,95.4 "/>
<text transform="matrix(1 0 0 1 151.8799 66.3101)" font-family="'TimesNewRomanPSMT'" font-size="10">Extract</text>
<polyline fill="none" stroke="#000000" stroke-width="0.75" stroke-linecap="round" stroke-linejoin="round" stroke-miterlimit="10" points="
	234,95.4 297.36,95.4 297.33,95.4 297.45,95.39 297.56,95.37 297.67,95.33 297.77,95.27 297.86,95.2 297.94,95.11 298,95.01 
	298.04,94.91 298.07,94.8 298.08,94.68 298.08,31.32 298.07,31.2 298.04,31.09 298,30.99 297.94,30.89 297.86,30.8 297.77,30.73 
	297.67,30.67 297.56,30.63 297.45,30.61 297.36,30.6 234,30.6 234.09,30.61 233.97,30.6 233.86,30.61 233.74,30.65 233.64,30.7 
	233.54,30.76 233.46,30.84 233.39,30.94 233.34,31.04 233.3,31.15 233.28,31.26 233.28,31.32 233.28,94.68 233.28,94.62 
	233.28,94.74 233.3,94.85 233.34,94.96 233.39,95.06 233.46,95.16 233.54,95.24 233.64,95.3 233.74,95.35 233.86,95.39 233.97,95.4 
	234,95.4 "/>
<text transform="matrix(1 0 0 1 242.9102 66.3101)" font-family="'TimesNewRomanPSMT'" font-size="10">Manipulate</text>
<polyline fill="none" stroke="#000000" stroke-width="0.75" stroke-linecap="round" stroke-linejoin="round" stroke-miterlimit="10" points="
	333.36,95.4 396.72,95.4 396.69,95.4 396.81,95.39 396.92,95.37 397.03,95.33 397.13,95.27 397.22,95.2 397.3,95.11 397.36,95.01 
	397.4,94.91 397.43,94.8 397.44,94.68 397.44,31.32 397.43,31.2 397.4,31.09 397.36,30.99 397.3,30.89 397.22,30.8 397.13,30.73 
	397.03,30.67 396.92,30.63 396.81,30.61 396.72,30.6 333.36,30.6 333.45,30.61 333.33,30.6 333.22,30.61 333.1,30.65 333,30.7 
	332.9,30.76 332.82,30.84 332.75,30.94 332.7,31.04 332.66,31.15 332.64,31.26 332.64,31.32 332.64,94.68 332.64,94.62 
	332.64,94.74 332.66,94.85 332.7,94.96 332.75,95.06 332.82,95.16 332.9,95.24 333,95.3 333.1,95.35 333.22,95.39 333.33,95.4 
	333.36,95.4 "/>
<text transform="matrix(1 0 0 1 350.3203 66.3101)" font-family="'TimesNewRomanPSMT'" font-size="10">Present</text>
<line fill="none" stroke="#000000" stroke-width="0.75" stroke-linecap="round" stroke-linejoin="round" stroke-miterlimit="10" x1="99.36" y1="63" x2="133.92" y2="63"/>
<polyline fill="none" stroke="#000000" stroke-width="0.75" stroke-linecap="round" stroke-linejoin="round" stroke-miterlimit="10" points="
	130.18,65.16 133.92,63 130.18,60.84 "/>
<line fill="none" stroke="#000000" stroke-width="0.75" stroke-linecap="round" stroke-linejoin="round" stroke-miterlimit="10" x1="198.72" y1="63" x2="233.28" y2="63"/>
<polyline fill="none" stroke="#000000" stroke-width="0.75" stroke-linecap="round" stroke-linejoin="round" stroke-miterlimit="10" points="
	229.54,65.16 233.28,63 229.54,60.84 "/>
<line fill="none" stroke="#000000" stroke-width="0.75" stroke-linecap="round" stroke-linejoin="round" stroke-miterlimit="10" x1="298.08" y1="63" x2="332.64" y2="63"/>
<polyline fill="none" stroke="#000000" stroke-width="0.75" stroke-linecap="round" stroke-linejoin="round" stroke-miterlimit="10" points="
	328.9,65.16 332.64,63 328.9,60.84 "/>
<polyline fill="none" stroke="#000000" stroke-width="0.75" stroke-linecap="round" stroke-linejoin="round" stroke-miterlimit="10" stroke-dasharray="0,3" points="
	23.04,104.4 408.96,104.4 408.93,104.4 409.05,104.39 409.16,104.37 409.27,104.33 409.37,104.27 409.46,104.2 409.54,104.11 
	409.6,104.01 409.64,103.91 409.67,103.8 409.68,103.68 409.68,22.32 409.67,22.2 409.64,22.09 409.6,21.99 409.54,21.89 
	409.46,21.8 409.37,21.73 409.27,21.67 409.16,21.63 409.05,21.61 408.96,21.6 23.04,21.6 23.13,21.61 23.01,21.6 22.9,21.61 
	22.78,21.65 22.68,21.7 22.58,21.76 22.5,21.84 22.43,21.94 22.38,22.04 22.34,22.15 22.32,22.26 22.32,22.32 22.32,103.68 
	22.32,103.62 22.32,103.74 22.34,103.85 22.38,103.96 22.43,104.06 22.5,104.16 22.58,104.24 22.68,104.3 22.78,104.35 22.9,104.39 
	23.01,104.4 23.04,104.4 "/>
<text transform="matrix(1 0 0 1 132.1001 14.1802)"><tspan x="0" y="0" font-family="'TimesNewRomanPS-BoldMT'" font-size="10">Geographic In</tspan><tspan x="61.948" y="0" font-family="'TimesNewRomanPS-BoldMT'" font-size="10">f</tspan><tspan x="65.028" y="0" font-family="'TimesNewRomanPS-BoldMT'" font-size="10">ormation Systems (GIS)</tspan></text>
<polyline fill="none" stroke="#000000" stroke-width="0.75" stroke-linecap="round" stroke-linejoin="round" stroke-miterlimit="10" points="
	122.04,234 210.6,234 210.57,234 210.69,233.99 210.8,233.97 210.91,233.93 211.01,233.87 211.1,233.8 211.18,233.71 211.24,233.61 
	211.28,233.51 211.31,233.4 211.32,233.28 211.32,169.92 211.31,169.8 211.28,169.69 211.24,169.59 211.18,169.49 211.1,169.4 
	211.01,169.33 210.91,169.27 210.8,169.23 210.69,169.21 210.6,169.2 122.04,169.2 122.13,169.21 122.01,169.2 121.9,169.21 
	121.78,169.25 121.68,169.3 121.58,169.36 121.5,169.44 121.43,169.54 121.38,169.64 121.34,169.75 121.32,169.86 121.32,169.92 
	121.32,233.28 121.32,233.22 121.32,233.34 121.34,233.45 121.38,233.56 121.43,233.66 121.5,233.76 121.58,233.84 121.68,233.9 
	121.78,233.95 121.9,233.99 122.01,234 122.04,234 "/>
<text transform="matrix(1 0 0 1 150.8301 183.2695)"><tspan x="0" y="0" font-family="'TimesNewRomanPS-ItalicMT'" font-size="10">Natu</tspan><tspan x="19.448" y="0" font-family="'TimesNewRomanPS-ItalicMT'" font-size="10">r</tspan><tspan x="23.19" y="0" font-family="'TimesNewRomanPS-ItalicMT'" font-size="10">al</tspan></text>
<text transform="matrix(1 0 0 1 146.3701 197.6602)"><tspan x="0" y="0" font-family="'TimesNewRomanPS-ItalicMT'" font-size="10">Langua</tspan><tspan x="30.562" y="0" font-family="'TimesNewRomanPS-ItalicMT'" font-size="10">g</tspan><tspan x="35.461" y="0" font-family="'TimesNewRomanPS-ItalicMT'" font-size="10">e</tspan></text>
<text transform="matrix(1 0 0 1 144.3198 212.0596)"><tspan x="0" y="0" font-family="'TimesNewRomanPS-ItalicMT'" font-size="10">P</tspan><tspan x="6.108" y="0" font-family="'TimesNewRomanPS-ItalicMT'" font-size="10">r</tspan><tspan x="9.55" y="0" font-family="'TimesNewRomanPS-ItalicMT'" font-size="10">ocessing</tspan></text>
<text transform="matrix(1 0 0 1 153.8198 226.46)" font-family="'TimesNewRomanPS-ItalicMT'" font-size="10">(NLP)</text>
<line fill="none" stroke="#000000" stroke-width="0.75" stroke-linecap="round" stroke-linejoin="round" stroke-miterlimit="10" x1="166.32" y1="169.2" x2="166.32" y2="95.4"/>
<polyline fill="none" stroke="#000000" stroke-width="0.75" stroke-linecap="round" stroke-linejoin="round" stroke-miterlimit="10" points="
	168.48,99.14 166.32,95.4 164.16,99.14 "/>
<polyline fill="none" stroke="#000000" stroke-width="0.75" stroke-linecap="round" stroke-linejoin="round" stroke-miterlimit="10" points="
	221.4,234 309.96,234 309.93,234 310.05,233.99 310.16,233.97 310.27,233.93 310.37,233.87 310.46,233.8 310.54,233.71 
	310.6,233.61 310.64,233.51 310.67,233.4 310.68,233.28 310.68,169.92 310.67,169.8 310.64,169.69 310.6,169.59 310.54,169.49 
	310.46,169.4 310.37,169.33 310.27,169.27 310.16,169.23 310.05,169.21 309.96,169.2 221.4,169.2 221.49,169.21 221.37,169.2 
	221.26,169.21 221.14,169.25 221.04,169.3 220.94,169.36 220.86,169.44 220.79,169.54 220.74,169.64 220.7,169.75 220.68,169.86 
	220.68,169.92 220.68,233.28 220.68,233.22 220.68,233.34 220.7,233.45 220.74,233.56 220.79,233.66 220.86,233.76 220.94,233.84 
	221.04,233.9 221.14,233.95 221.26,233.99 221.37,234 221.4,234 "/>
<text transform="matrix(1 0 0 1 248.2598 197.6602)"><tspan x="0" y="0" font-family="'TimesNewRomanPS-ItalicMT'" font-size="10">Ma</tspan><tspan x="13.33" y="0" font-family="'TimesNewRomanPS-ItalicMT'" font-size="10">c</tspan><tspan x="17.629" y="0" font-family="'TimesNewRomanPS-ItalicMT'" font-size="10">hine</tspan></text>
<text transform="matrix(1 0 0 1 247.3398 212.0596)" font-family="'TimesNewRomanPS-ItalicMT'" font-size="10">Learning</text>
<line fill="none" stroke="#000000" stroke-width="0.75" stroke-linecap="round" stroke-linejoin="round" stroke-miterlimit="10" x1="265.68" y1="169.2" x2="265.68" y2="95.4"/>
<polyline fill="none" stroke="#000000" stroke-width="0.75" stroke-linecap="round" stroke-linejoin="round" stroke-miterlimit="10" points="
	267.84,99.14 265.68,95.4 263.52,99.14 "/>
</svg>
